<svg width="980" height="209" viewBox="0 0 980 209" fill="none" xmlns="http://www.w3.org/2000/svg">
<path d="M535.334 51.3668C535.734 53.2886 542.8 78.2725 551.067 106.98L566.134 159.23L573.467 159.59L580.667 159.951L594.534 113.947C602.134 88.6024 608.534 67.1018 608.934 66.1409C609.2 65.18 611.734 72.1467 614.534 81.7559C617.334 91.3651 623.734 112.866 628.8 129.562L638 159.951L645.2 159.59L652.534 159.23L668.134 106.379C676.8 77.3116 684.267 52.3277 684.667 50.7662C685.334 48.1237 685.067 48.0036 679.2 48.3639L672.934 48.7243L661.2 88.9628C654.667 111.064 648.4 133.165 647.2 138.09L644.934 147.098L637.867 123.075C633.867 109.983 627.2 87.7616 622.934 73.9484L615.2 48.7243L609.734 48.3639L604.134 48.0036L602 54.3697C600.934 57.853 594.134 80.0742 586.934 103.617L573.867 146.618L561.334 101.214C554.534 76.3507 548.4 54.1294 547.734 51.9674C546.667 48.3639 546.134 48.1237 540.534 48.1237C534.534 48.1237 534.534 48.2438 535.334 51.3668Z" fill="black"/>
<path d="M936 70.3452V92.6866L931.734 88.3624C924.934 81.2756 918.267 78.7532 906.667 78.7532C894.534 78.8733 886.667 81.8762 879.334 89.2032C870.4 97.9716 868.667 103.137 868.667 120.193C868.667 134.246 868.934 135.688 872.4 142.054C876.8 150.102 885.6 157.669 893.067 159.591C900.934 161.753 914.4 161.392 920.667 158.75C923.734 157.549 928.667 153.945 931.734 150.822L937.334 145.057L936.534 152.504L935.6 159.831H941.867H948V103.977V48.1239H942H936V70.3452ZM922.534 91.7256C925.334 93.4072 929.067 97.371 931.334 101.095C936.267 109.383 937.6 124.757 934.134 134.246C932 140.012 925.067 147.339 919.334 149.981C906.534 155.627 890.934 150.222 883.734 137.73C880.134 131.604 878.934 115.388 881.334 107.581C883.467 100.854 890.934 92.9268 897.867 89.9239C905.067 86.921 915.734 87.6417 922.534 91.7256Z" fill="black"/>
<path d="M731.6 79.4742C711.066 83.7983 696.933 99.8937 696.8 118.992C696.8 131.364 699.866 139.051 708.266 147.339C718.133 156.948 725.733 160.191 740.666 160.792C756.4 161.393 765.2 158.63 775.066 149.862C785.866 140.252 788.666 134.126 788.666 119.593C788.666 106.98 787.2 102.776 779.6 93.5276C770.4 82.3569 748.4 75.8707 731.6 79.4742ZM756.666 90.6448C764.666 94.0081 773.6 102.536 775.733 109.143C782.933 130.523 766.933 151.543 743.466 151.663C732.666 151.663 725.066 148.66 717.866 141.574C711.2 135.087 708.8 129.202 708.8 119.593C708.666 96.4104 734 81.0356 756.666 90.6448Z" fill="black"/>
<path d="M844.001 80.6753C838.001 82.8374 832.001 87.8822 828.001 94.1282L824.001 100.374V90.4046V80.5552H818.667H813.334V120.193V159.831H819.201H825.067L825.601 136.048C826.001 112.506 826.001 112.386 830.001 105.179C835.201 95.9299 841.734 91.2454 850.667 90.4046L857.334 89.804V84.6391V79.354L852.401 79.4742C849.601 79.4742 845.867 80.0747 844.001 80.6753Z" fill="black"/>
<g clip-path="url(#clip0_7519_4819)">
<rect x="1" width="504" height="209" rx="30" fill="#003D6C"/>
<path d="M39.3903 164V45.84H110.24V58.533H53.6988V98.4581H104.932V111.151H53.6988V164H39.3903ZM162.397 165.846C154.396 165.846 147.377 163.942 141.338 160.134C135.338 156.327 130.645 150.999 127.26 144.153C123.914 137.306 122.241 129.306 122.241 120.152C122.241 110.92 123.914 102.862 127.26 95.9772C130.645 89.0922 135.338 83.7458 141.338 79.9379C147.377 76.13 154.396 74.2261 162.397 74.2261C170.397 74.2261 177.398 76.13 183.398 79.9379C189.437 83.7458 194.129 89.0922 197.475 95.9772C200.86 102.862 202.553 110.92 202.553 120.152C202.553 129.306 200.86 137.306 197.475 144.153C194.129 150.999 189.437 156.327 183.398 160.134C177.398 163.942 170.397 165.846 162.397 165.846ZM162.397 153.615C168.474 153.615 173.474 152.057 177.398 148.942C181.321 145.826 184.225 141.73 186.11 136.652C187.994 131.575 188.937 126.075 188.937 120.152C188.937 114.228 187.994 108.709 186.11 103.593C184.225 98.4774 181.321 94.3425 177.398 91.1885C173.474 88.0345 168.474 86.4575 162.397 86.4575C156.319 86.4575 151.319 88.0345 147.396 91.1885C143.473 94.3425 140.569 98.4774 138.684 103.593C136.799 108.709 135.857 114.228 135.857 120.152C135.857 126.075 136.799 131.575 138.684 136.652C140.569 141.73 143.473 145.826 147.396 148.942C151.319 152.057 156.319 153.615 162.397 153.615ZM259.339 165.846C251.031 165.846 243.877 163.885 237.877 159.961C231.876 156.038 227.261 150.634 224.03 143.749C220.799 136.864 219.183 128.998 219.183 120.152C219.183 111.151 220.837 103.208 224.145 96.3234C227.491 89.4 232.146 83.9958 238.107 80.111C244.108 76.1877 251.108 74.2261 259.108 74.2261C265.34 74.2261 270.955 75.38 275.956 77.6878C280.956 79.9956 285.052 83.2266 288.245 87.3806C291.437 91.5347 293.418 96.3811 294.187 101.92H280.571C279.533 97.8812 277.225 94.3041 273.648 91.1885C270.109 88.0345 265.34 86.4575 259.339 86.4575C254.031 86.4575 249.377 87.8422 245.377 90.6116C241.415 93.3425 238.319 97.2081 236.088 102.208C233.896 107.17 232.799 112.997 232.799 119.69C232.799 126.537 233.876 132.498 236.03 137.576C238.223 142.653 241.3 146.595 245.262 149.403C249.262 152.211 253.954 153.615 259.339 153.615C262.878 153.615 266.09 152.999 268.974 151.769C271.859 150.538 274.302 148.768 276.302 146.461C278.302 144.153 279.725 141.383 280.571 138.153H294.187C293.418 143.384 291.514 148.095 288.475 152.288C285.475 156.442 281.494 159.75 276.532 162.211C271.609 164.635 265.878 165.846 259.339 165.846ZM369.941 127.767V75.38H383.557V164H369.941V148.999H369.018C366.941 153.499 363.71 157.327 359.325 160.481C354.94 163.596 349.402 165.154 342.709 165.154C337.17 165.154 332.247 163.942 327.939 161.519C323.631 159.057 320.246 155.365 317.785 150.442C315.323 145.48 314.092 139.229 314.092 131.691V75.38H327.708V130.767C327.708 137.229 329.516 142.383 333.132 146.23C336.786 150.076 341.44 151.999 347.094 151.999C350.479 151.999 353.921 151.134 357.421 149.403C360.96 147.672 363.922 145.018 366.306 141.441C368.73 137.864 369.941 133.306 369.941 127.767ZM471.269 95.2272L459.037 98.6889C458.268 96.6503 457.133 94.6695 455.633 92.7463C454.172 90.7846 452.171 89.1692 449.633 87.8999C447.094 86.6306 443.844 85.9959 439.882 85.9959C434.459 85.9959 429.94 87.246 426.324 89.7461C422.747 92.2078 420.958 95.3426 420.958 99.1505C420.958 102.535 422.189 105.208 424.651 107.17C427.112 109.132 430.959 110.766 436.19 112.074L449.344 115.305C457.268 117.228 463.172 120.171 467.057 124.133C470.942 128.056 472.884 133.114 472.884 139.306C472.884 144.384 471.422 148.922 468.499 152.922C465.614 156.923 461.576 160.077 456.383 162.385C451.191 164.692 445.152 165.846 438.267 165.846C429.228 165.846 421.747 163.885 415.823 159.961C409.9 156.038 406.15 150.307 404.573 142.768L417.497 139.537C418.727 144.307 421.054 147.884 424.478 150.269C427.939 152.653 432.459 153.846 438.036 153.846C444.383 153.846 449.421 152.499 453.152 149.807C456.922 147.076 458.806 143.807 458.806 139.999C458.806 136.922 457.729 134.345 455.575 132.268C453.422 130.152 450.114 128.575 445.652 127.537L430.882 124.075C422.766 122.152 416.804 119.171 412.996 115.132C409.227 111.055 407.342 105.959 407.342 99.8428C407.342 94.8425 408.746 90.4192 411.554 86.5729C414.4 82.7265 418.266 79.7071 423.151 77.5147C428.074 75.3223 433.651 74.2261 439.882 74.2261C448.652 74.2261 455.537 76.1493 460.537 79.9956C465.576 83.842 469.153 88.9192 471.269 95.2272Z" fill="white"/>
</g>
<defs>
<clipPath id="clip0_7519_4819">
<rect x="1" width="504" height="209" rx="30" fill="white"/>
</clipPath>
</defs>
</svg>
