<svg width="72" height="20" viewBox="0 0 72 20" fill="none" xmlns="http://www.w3.org/2000/svg">
<g clip-path="url(#clip0_7891_13520)">
<path d="M1 4.80952V2.90476C1 2.39959 1.2281 1.9151 1.63411 1.55789C2.04013 1.20068 2.59081 1 3.165 1H5.33" stroke="url(#paint0_linear_7891_13520)" stroke-width="2" stroke-linecap="round" stroke-linejoin="round"/>
<path d="M8.10795 8.45455V9.64773H4.23864V8.45455H8.10795ZM5.20597 15V7.83665C5.20597 7.39631 5.29688 7.02983 5.47869 6.73722C5.66335 6.4446 5.91051 6.22585 6.22017 6.08097C6.52983 5.93608 6.87358 5.86364 7.25142 5.86364C7.51847 5.86364 7.75568 5.88494 7.96307 5.92756C8.17045 5.97017 8.32386 6.00852 8.4233 6.04261L8.11648 7.2358C8.05114 7.21591 7.96875 7.19602 7.86932 7.17614C7.76989 7.15341 7.65909 7.14205 7.53693 7.14205C7.25 7.14205 7.04688 7.21165 6.92756 7.35085C6.81108 7.48722 6.75284 7.68324 6.75284 7.93892V15H5.20597ZM11.9251 15.1278C11.2859 15.1278 10.7319 14.9872 10.2631 14.706C9.79439 14.4247 9.43075 14.0312 9.17223 13.5256C8.91655 13.0199 8.78871 12.429 8.78871 11.7528C8.78871 11.0767 8.91655 10.4844 9.17223 9.97585C9.43075 9.46733 9.79439 9.07244 10.2631 8.79119C10.7319 8.50994 11.2859 8.36932 11.9251 8.36932C12.5643 8.36932 13.1183 8.50994 13.587 8.79119C14.0558 9.07244 14.418 9.46733 14.6737 9.97585C14.9322 10.4844 15.0614 11.0767 15.0614 11.7528C15.0614 12.429 14.9322 13.0199 14.6737 13.5256C14.418 14.0312 14.0558 14.4247 13.587 14.706C13.1183 14.9872 12.5643 15.1278 11.9251 15.1278ZM11.9336 13.892C12.2802 13.892 12.57 13.7969 12.8029 13.6065C13.0359 13.4134 13.2092 13.1548 13.3228 12.831C13.4393 12.5071 13.4975 12.1463 13.4975 11.7486C13.4975 11.348 13.4393 10.9858 13.3228 10.6619C13.2092 10.3352 13.0359 10.0753 12.8029 9.8821C12.57 9.68892 12.2802 9.59233 11.9336 9.59233C11.5785 9.59233 11.283 9.68892 11.0472 9.8821C10.8143 10.0753 10.6396 10.3352 10.5231 10.6619C10.4094 10.9858 10.3526 11.348 10.3526 11.7486C10.3526 12.1463 10.4094 12.5071 10.5231 12.831C10.6396 13.1548 10.8143 13.4134 11.0472 13.6065C11.283 13.7969 11.5785 13.892 11.9336 13.892ZM19.2259 15.1278C18.5724 15.1278 18.0114 14.9844 17.5426 14.6974C17.0767 14.4105 16.7173 14.0142 16.4645 13.5085C16.2145 13 16.0895 12.4148 16.0895 11.7528C16.0895 11.0881 16.2173 10.5014 16.473 9.9929C16.7287 9.48153 17.0895 9.08381 17.5554 8.79972C18.0241 8.51278 18.5781 8.36932 19.2173 8.36932C19.7486 8.36932 20.2188 8.46733 20.6278 8.66335C21.0398 8.85653 21.3679 9.13068 21.6122 9.4858C21.8565 9.83807 21.9957 10.25 22.0298 10.7216H20.5554C20.4957 10.4062 20.3537 10.1435 20.1293 9.93324C19.9077 9.72017 19.6108 9.61364 19.2386 9.61364C18.9233 9.61364 18.6463 9.69886 18.4077 9.86932C18.169 10.0369 17.983 10.2784 17.8494 10.5938C17.7188 10.9091 17.6534 11.2869 17.6534 11.7273C17.6534 12.1733 17.7188 12.5568 17.8494 12.8778C17.9801 13.196 18.1634 13.4418 18.3991 13.6151C18.6378 13.7855 18.9176 13.8707 19.2386 13.8707C19.4659 13.8707 19.669 13.8281 19.848 13.7429C20.0298 13.6548 20.1818 13.5284 20.304 13.3636C20.4261 13.1989 20.5099 12.9986 20.5554 12.7628H22.0298C21.9929 13.2259 21.8565 13.6364 21.6207 13.9943C21.3849 14.3494 21.0639 14.6278 20.6577 14.8295C20.2514 15.0284 19.7741 15.1278 19.2259 15.1278ZM27.4684 12.2472V8.45455H29.011V15H27.5153V13.8366H27.4471C27.2994 14.2031 27.0565 14.5028 26.7184 14.7358C26.3832 14.9687 25.9698 15.0852 25.4783 15.0852C25.0494 15.0852 24.6701 14.9901 24.3406 14.7997C24.0138 14.6065 23.7582 14.3267 23.5735 13.9602C23.3888 13.5909 23.2965 13.1449 23.2965 12.6222V8.45455H24.8391V12.3835C24.8391 12.7983 24.9528 13.1278 25.18 13.3722C25.4073 13.6165 25.7056 13.7386 26.0749 13.7386C26.3022 13.7386 26.5224 13.6832 26.7354 13.5724C26.9485 13.4616 27.1232 13.2969 27.2596 13.0781C27.3988 12.8565 27.4684 12.5795 27.4684 12.2472ZM35.7706 10.1847L34.3643 10.3381C34.3246 10.196 34.255 10.0625 34.1555 9.9375C34.0589 9.8125 33.9283 9.71165 33.7635 9.63494C33.5987 9.55824 33.397 9.51989 33.1584 9.51989C32.8374 9.51989 32.5675 9.58949 32.3487 9.72869C32.1328 9.8679 32.0263 10.0483 32.0291 10.2699C32.0263 10.4602 32.0959 10.6151 32.2379 10.7344C32.3828 10.8537 32.6214 10.9517 32.9538 11.0284L34.0703 11.267C34.6896 11.4006 35.1499 11.6122 35.451 11.902C35.755 12.1918 35.9084 12.571 35.9112 13.0398C35.9084 13.4517 35.7876 13.8153 35.549 14.1307C35.3132 14.4432 34.9851 14.6875 34.5646 14.8636C34.1442 15.0398 33.6612 15.1278 33.1158 15.1278C32.3146 15.1278 31.6697 14.9602 31.1811 14.625C30.6925 14.2869 30.4013 13.8168 30.3075 13.2145L31.8118 13.0696C31.88 13.3651 32.0249 13.5881 32.2464 13.7386C32.468 13.8892 32.7564 13.9645 33.1115 13.9645C33.478 13.9645 33.772 13.8892 33.9936 13.7386C34.218 13.5881 34.3303 13.402 34.3303 13.1804C34.3303 12.9929 34.2578 12.8381 34.1129 12.7159C33.9709 12.5937 33.7493 12.5 33.4482 12.4347L32.3317 12.2003C31.7038 12.0696 31.2393 11.8494 30.9382 11.5398C30.6371 11.2273 30.4879 10.8324 30.4908 10.3551C30.4879 9.9517 30.5973 9.60227 30.8189 9.30682C31.0433 9.00852 31.3544 8.77841 31.7521 8.61648C32.1527 8.4517 32.6143 8.36932 33.1371 8.36932C33.9041 8.36932 34.5078 8.53267 34.9482 8.85938C35.3913 9.18608 35.6655 9.62784 35.7706 10.1847Z" fill="url(#paint1_radial_7891_13520)"/>
<path d="M71.33 15V16.9048C71.33 17.4099 71.1019 17.8944 70.6959 18.2516C70.2899 18.6088 69.7392 18.8095 69.165 18.8095H67" stroke="url(#paint2_linear_7891_13520)" stroke-width="2" stroke-linecap="round" stroke-linejoin="round"/>
<path d="M39.6974 15L37.2344 6.27273H38.9347L40.5071 12.6861H40.5881L42.267 6.27273H43.8139L45.4972 12.6903H45.5739L47.1463 6.27273H48.8466L46.3835 15H44.8239L43.0767 8.87642H43.0085L41.2571 15H39.6974ZM52.0618 15.1278C51.4226 15.1278 50.8686 14.9872 50.3999 14.706C49.9311 14.4247 49.5675 14.0312 49.3089 13.5256C49.0533 13.0199 48.9254 12.429 48.9254 11.7528C48.9254 11.0767 49.0533 10.4844 49.3089 9.97585C49.5675 9.46733 49.9311 9.07244 50.3999 8.79119C50.8686 8.50994 51.4226 8.36932 52.0618 8.36932C52.701 8.36932 53.255 8.50994 53.7237 8.79119C54.1925 9.07244 54.5547 9.46733 54.8104 9.97585C55.0689 10.4844 55.1982 11.0767 55.1982 11.7528C55.1982 12.429 55.0689 13.0199 54.8104 13.5256C54.5547 14.0312 54.1925 14.4247 53.7237 14.706C53.255 14.9872 52.701 15.1278 52.0618 15.1278ZM52.0703 13.892C52.4169 13.892 52.7067 13.7969 52.9396 13.6065C53.1726 13.4134 53.3459 13.1548 53.4595 12.831C53.576 12.5071 53.6342 12.1463 53.6342 11.7486C53.6342 11.348 53.576 10.9858 53.4595 10.6619C53.3459 10.3352 53.1726 10.0753 52.9396 9.8821C52.7067 9.68892 52.4169 9.59233 52.0703 9.59233C51.7152 9.59233 51.4197 9.68892 51.1839 9.8821C50.951 10.0753 50.7763 10.3352 50.6598 10.6619C50.5462 10.9858 50.4893 11.348 50.4893 11.7486C50.4893 12.1463 50.5462 12.5071 50.6598 12.831C50.7763 13.1548 50.951 13.4134 51.1839 13.6065C51.4197 13.7969 51.7152 13.892 52.0703 13.892ZM56.5075 15V8.45455H58.0032V9.54545H58.0714C58.1907 9.16761 58.3952 8.87642 58.685 8.67188C58.9776 8.46449 59.3114 8.3608 59.6864 8.3608C59.7717 8.3608 59.8668 8.36506 59.9719 8.37358C60.0799 8.37926 60.1694 8.3892 60.2404 8.40341V9.82244C60.1751 9.79972 60.0714 9.77983 59.9293 9.76278C59.7901 9.7429 59.6552 9.73295 59.5245 9.73295C59.2433 9.73295 58.9904 9.79403 58.766 9.91619C58.5444 10.0355 58.3697 10.2017 58.2418 10.4148C58.114 10.6278 58.0501 10.8736 58.0501 11.152V15H56.5075ZM63.4247 15.1151C62.9105 15.1151 62.4503 14.983 62.044 14.7188C61.6378 14.4545 61.3168 14.071 61.081 13.5682C60.8452 13.0653 60.7273 12.4545 60.7273 11.7358C60.7273 11.0085 60.8466 10.3949 61.0852 9.89489C61.3267 9.39205 61.652 9.01278 62.0611 8.7571C62.4702 8.49858 62.9261 8.36932 63.429 8.36932C63.8125 8.36932 64.1278 8.43466 64.375 8.56534C64.6222 8.69318 64.8182 8.84801 64.9631 9.02983C65.108 9.20881 65.2202 9.37784 65.2997 9.53693H65.3636V6.27273H66.9105V15H65.3935V13.9688H65.2997C65.2202 14.1278 65.1051 14.2969 64.9545 14.4759C64.804 14.652 64.6051 14.8026 64.358 14.9276C64.1108 15.0526 63.7997 15.1151 63.4247 15.1151ZM63.8551 13.8494C64.1818 13.8494 64.4602 13.7614 64.6903 13.5852C64.9205 13.4062 65.0952 13.1577 65.2145 12.8395C65.3338 12.5213 65.3935 12.1506 65.3935 11.7273C65.3935 11.304 65.3338 10.9361 65.2145 10.6236C65.098 10.3111 64.9247 10.0682 64.6946 9.89489C64.4673 9.72159 64.1875 9.63494 63.8551 9.63494C63.5114 9.63494 63.2244 9.72443 62.9943 9.90341C62.7642 10.0824 62.5909 10.3295 62.4744 10.6449C62.358 10.9602 62.2997 11.321 62.2997 11.7273C62.2997 12.1364 62.358 12.5014 62.4744 12.8224C62.5938 13.1406 62.7685 13.392 62.9986 13.5767C63.2315 13.7585 63.517 13.8494 63.8551 13.8494Z" fill="url(#paint3_radial_7891_13520)"/>
</g>
<defs>
<linearGradient id="paint0_linear_7891_13520" x1="3.165" y1="1" x2="3.165" y2="4.80952" gradientUnits="userSpaceOnUse">
<stop stop-color="#6B57E0"/>
<stop offset="1" stop-color="#AE7DE9"/>
</linearGradient>
<radialGradient id="paint1_radial_7891_13520" cx="0" cy="0" r="1" gradientUnits="userSpaceOnUse" gradientTransform="translate(6 12) rotate(0.971021) scale(29.5042 64.9093)">
<stop stop-color="#7D36D6"/>
<stop offset="1" stop-color="#6040DD"/>
</radialGradient>
<linearGradient id="paint2_linear_7891_13520" x1="69.165" y1="15" x2="69.165" y2="18.8095" gradientUnits="userSpaceOnUse">
<stop stop-color="#6956DF"/>
<stop offset="1" stop-color="#AE7DE9"/>
</linearGradient>
<radialGradient id="paint3_radial_7891_13520" cx="0" cy="0" r="1" gradientUnits="userSpaceOnUse" gradientTransform="translate(66 11) rotate(-180) scale(27.5 54.0382)">
<stop stop-color="#7D36D6"/>
<stop offset="1" stop-color="#583CB3"/>
</radialGradient>
<clipPath id="clip0_7891_13520">
<rect width="72" height="20" fill="white"/>
</clipPath>
</defs>
</svg>
